<svg xmlns="http://www.w3.org/2000/svg" xmlns:xlink="http://www.w3.org/1999/xlink" width="380" height="244" viewBox="0 0 380 244">
  <defs>
    <filter id="패스_167" x="0" y="0" width="380" height="244" filterUnits="userSpaceOnUse">
      <feOffset dy="3" input="SourceAlpha"/>
      <feGaussianBlur stdDeviation="6" result="blur"/>
      <feFlood flood-color="#95a6b6" flood-opacity="0.118"/>
      <feComposite operator="in" in2="blur"/>
      <feComposite in="SourceGraphic"/>
    </filter>
    <linearGradient id="linear-gradient" x1="0.5" x2="0.5" y2="1" gradientUnits="objectBoundingBox">
      <stop offset="0" stop-color="#33d7a0" stop-opacity="0.239"/>
      <stop offset="1" stop-color="#75eed2" stop-opacity="0.039"/>
    </linearGradient>
  </defs>
  <g id="그룹_456" data-name="그룹 456" transform="translate(-770 -952)">
    <g transform="matrix(1, 0, 0, 1, 770, 952)" filter="url(#패스_167)">
      <g id="패스_167-2" data-name="패스 167" transform="translate(18 15)" fill="#fff">
        <path d="M 340.3790283203125 207.5 L 3.621060609817505 207.5 C 1.900106191635132 207.5 0.5000152587890625 205.8581390380859 0.5000152587890625 203.8399963378906 L 0.5000152587890625 4.159999847412109 C 0.5000152587890625 2.141863584518433 1.900106191635132 0.5 3.621060609817505 0.5 L 340.3790283203125 0.5 C 342.0999145507812 0.5 343.5 2.141863584518433 343.5 4.159999847412109 L 343.5 203.8399963378906 C 343.5 205.8581390380859 342.0999145507812 207.5 340.3790283203125 207.5 Z" stroke="none"/>
        <path d="M 3.621063232421875 1 C 2.17584228515625 1 1.000030517578125 2.417587280273438 1.000030517578125 4.160003662109375 L 1.000030517578125 203.8399963378906 C 1.000030517578125 205.5824127197266 2.17584228515625 207 3.621063232421875 207 L 340.3789672851562 207 C 341.8241882324219 207 343 205.5824127197266 343 203.8399963378906 L 343 4.160003662109375 C 343 2.417587280273438 341.8241882324219 1 340.3789672851562 1 L 3.621063232421875 1 M 3.621063232421875 0 L 340.3789672851562 0 C 342.3788452148438 0 344 1.862503051757812 344 4.160003662109375 L 344 203.8399963378906 C 344 206.1374969482422 342.3788452148438 208 340.3789672851562 208 L 3.621063232421875 208 C 1.621185302734375 208 3.0517578125e-05 206.1374969482422 3.0517578125e-05 203.8399963378906 L 3.0517578125e-05 4.160003662109375 C 3.0517578125e-05 1.862503051757812 1.621185302734375 0 3.621063232421875 0 Z" stroke="none" fill="#eeeff1"/>
      </g>
    </g>
    <line id="선_11" data-name="선 11" x2="304" transform="translate(808 1155)" fill="none" stroke="#d2d7df" stroke-linecap="round" stroke-width="1" stroke-dasharray="4"/>
    <path id="패스_146" data-name="패스 146" d="M735.326,67.166c-23.117-11.08-24.017-37.51-45.02-40.421H682.09c-1.054.124-2.145.289-3.285.506-32.773,6.252-35.622,51.937-75.994,51.937-40.094,0-51.149-30.344-89.982-21.483v55.04h304V67.677C800.829,74.635,761.426,79.676,735.326,67.166Z" transform="translate(295.171 1042.255)" fill="url(#linear-gradient)"/>
    <path id="패스_145" data-name="패스 145" d="M2853,2743.643c39.242-9.474,50.1,21.3,90.211,21.3s42.946-45.685,75.51-51.937,29.6,27.1,56.161,39.915,67.015,7.214,82.117,0" transform="translate(-2045 -1644)" fill="none" stroke="#1ecf94" stroke-linecap="round" stroke-width="1.5"/>
    <g id="타원_37" data-name="타원 37" transform="translate(819 1093)" fill="#fff" stroke="#1ecf94" stroke-width="2">
      <circle cx="5" cy="5" r="5" stroke="none"/>
      <circle cx="5" cy="5" r="4" fill="none"/>
    </g>
    <g id="타원_38" data-name="타원 38" transform="translate(882 1115)" fill="#fff" stroke="#1ecf94" stroke-width="2">
      <circle cx="5" cy="5" r="5" stroke="none"/>
      <circle cx="5" cy="5" r="4" fill="none"/>
    </g>
    <g id="타원_41" data-name="타원 41" transform="translate(938 1088)" fill="#fff" stroke="#1ecf94" stroke-width="2">
      <circle cx="5" cy="5" r="5" stroke="none"/>
      <circle cx="5" cy="5" r="4" fill="none"/>
    </g>
    <g id="타원_42" data-name="타원 42" transform="translate(1027 1104)" fill="#fff" stroke="#1ecf94" stroke-width="2">
      <circle cx="5" cy="5" r="5" stroke="none"/>
      <circle cx="5" cy="5" r="4" fill="none"/>
    </g>
    <g id="타원_43" data-name="타원 43" transform="translate(1096 1107)" fill="#fff" stroke="#1ecf94" stroke-width="2">
      <circle cx="5" cy="5" r="5" stroke="none"/>
      <circle cx="5" cy="5" r="4" fill="none"/>
    </g>
    <g id="타원_39" data-name="타원 39" transform="translate(975 1060)" fill="#1ecf94" stroke="#1ecf94" stroke-width="2" opacity="0.3">
      <circle cx="8" cy="8" r="8" stroke="none"/>
      <circle cx="8" cy="8" r="7" fill="none"/>
    </g>
    <g id="타원_40" data-name="타원 40" transform="translate(979 1064)" fill="#1ecf94" stroke="#1ecf94" stroke-width="2">
      <circle cx="4" cy="4" r="4" stroke="none"/>
      <circle cx="4" cy="4" r="3" fill="none"/>
    </g>
  </g>
</svg>
