<svg xmlns="http://www.w3.org/2000/svg" xmlns:xlink="http://www.w3.org/1999/xlink" width="380" height="244" viewBox="0 0 380 244">
  <defs>
    <filter id="패스_172" x="0" y="0" width="380" height="244" filterUnits="userSpaceOnUse">
      <feOffset dy="3" input="SourceAlpha"/>
      <feGaussianBlur stdDeviation="6" result="blur"/>
      <feFlood flood-color="#95a6b6" flood-opacity="0.118"/>
      <feComposite operator="in" in2="blur"/>
      <feComposite in="SourceGraphic"/>
    </filter>
    <filter id="사각형_106">
      <feOffset dy="3" input="SourceAlpha"/>
      <feGaussianBlur stdDeviation="3" result="blur-2"/>
      <feFlood flood-color="#a6cee6" flood-opacity="0.161" result="color"/>
      <feComposite operator="out" in="SourceGraphic" in2="blur-2"/>
      <feComposite operator="in" in="color"/>
      <feComposite operator="in" in2="SourceGraphic"/>
    </filter>
    <linearGradient id="linear-gradient" y1="0.5" x2="1" y2="0.5" gradientUnits="objectBoundingBox">
      <stop offset="0" stop-color="#3dd967"/>
      <stop offset="1" stop-color="#20d07e"/>
    </linearGradient>
    <filter id="사각형_109">
      <feOffset dy="3" input="SourceAlpha"/>
      <feGaussianBlur stdDeviation="3" result="blur-3"/>
      <feFlood flood-color="#a6cee6" flood-opacity="0.161" result="color-2"/>
      <feComposite operator="out" in="SourceGraphic" in2="blur-3"/>
      <feComposite operator="in" in="color-2"/>
      <feComposite operator="in" in2="SourceGraphic"/>
    </filter>
    <filter id="합치기_1" x="100" y="73" width="82" height="47" filterUnits="userSpaceOnUse">
      <feOffset dy="3" input="SourceAlpha"/>
      <feGaussianBlur stdDeviation="3" result="blur-4"/>
      <feFlood flood-color="#7e878f" flood-opacity="0.188"/>
      <feComposite operator="in" in2="blur-4"/>
      <feComposite in="SourceGraphic"/>
    </filter>
    <filter id="사각형_107">
      <feOffset dy="3" input="SourceAlpha"/>
      <feGaussianBlur stdDeviation="3" result="blur-5"/>
      <feFlood flood-color="#a6cee6" flood-opacity="0.161" result="color-3"/>
      <feComposite operator="out" in="SourceGraphic" in2="blur-5"/>
      <feComposite operator="in" in="color-3"/>
      <feComposite operator="in" in2="SourceGraphic"/>
    </filter>
    <linearGradient id="linear-gradient-2" y1="0.5" x2="1" y2="0.5" gradientUnits="objectBoundingBox">
      <stop offset="0" stop-color="#3dd967"/>
      <stop offset="1" stop-color="#20d092"/>
    </linearGradient>
    <filter id="사각형_110">
      <feOffset dy="3" input="SourceAlpha"/>
      <feGaussianBlur stdDeviation="3" result="blur-6"/>
      <feFlood flood-color="#a6cee6" flood-opacity="0.161" result="color-4"/>
      <feComposite operator="out" in="SourceGraphic" in2="blur-6"/>
      <feComposite operator="in" in="color-4"/>
      <feComposite operator="in" in2="SourceGraphic"/>
    </filter>
    <filter id="합치기_1-2" x="234" y="117" width="113" height="47" filterUnits="userSpaceOnUse">
      <feOffset dy="3" input="SourceAlpha"/>
      <feGaussianBlur stdDeviation="3" result="blur-7"/>
      <feFlood flood-color="#7e878f" flood-opacity="0.2"/>
      <feComposite operator="in" in2="blur-7"/>
      <feComposite in="SourceGraphic"/>
    </filter>
    <filter id="사각형_108">
      <feOffset dy="3" input="SourceAlpha"/>
      <feGaussianBlur stdDeviation="3" result="blur-8"/>
      <feFlood flood-color="#a6cee6" flood-opacity="0.161" result="color-5"/>
      <feComposite operator="out" in="SourceGraphic" in2="blur-8"/>
      <feComposite operator="in" in="color-5"/>
      <feComposite operator="in" in2="SourceGraphic"/>
    </filter>
    <filter id="사각형_111">
      <feOffset dy="3" input="SourceAlpha"/>
      <feGaussianBlur stdDeviation="3" result="blur-9"/>
      <feFlood flood-color="#a6cee6" flood-opacity="0.161" result="color-6"/>
      <feComposite operator="out" in="SourceGraphic" in2="blur-9"/>
      <feComposite operator="in" in="color-6"/>
      <feComposite operator="in" in2="SourceGraphic"/>
    </filter>
    <filter id="합치기_1-3" x="121" y="161" width="82" height="47" filterUnits="userSpaceOnUse">
      <feOffset dy="3" input="SourceAlpha"/>
      <feGaussianBlur stdDeviation="3" result="blur-10"/>
      <feFlood flood-color="#7e878f" flood-opacity="0.2"/>
      <feComposite operator="in" in2="blur-10"/>
      <feComposite in="SourceGraphic"/>
    </filter>
  </defs>
  <g id="그룹_455" data-name="그룹 455" transform="translate(-1138 -1184)">
    <g transform="matrix(1, 0, 0, 1, 1138, 1184)" filter="url(#패스_172)">
      <g id="패스_172-2" data-name="패스 172" transform="translate(18 15)" fill="#fff">
        <path d="M 340.3790283203125 207.5 L 3.621060609817505 207.5 C 1.900106191635132 207.5 0.5000152587890625 205.8581390380859 0.5000152587890625 203.8399963378906 L 0.5000152587890625 4.159999847412109 C 0.5000152587890625 2.141863584518433 1.900106191635132 0.5 3.621060609817505 0.5 L 340.3790283203125 0.5 C 342.0999145507812 0.5 343.5 2.141863584518433 343.5 4.159999847412109 L 343.5 203.8399963378906 C 343.5 205.8581390380859 342.0999145507812 207.5 340.3790283203125 207.5 Z" stroke="none"/>
        <path d="M 3.621063232421875 1 C 2.17584228515625 1 1.000030517578125 2.417587280273438 1.000030517578125 4.160003662109375 L 1.000030517578125 203.8399963378906 C 1.000030517578125 205.5824127197266 2.17584228515625 207 3.621063232421875 207 L 340.3789672851562 207 C 341.8241882324219 207 343 205.5824127197266 343 203.8399963378906 L 343 4.160003662109375 C 343 2.417587280273438 341.8241882324219 1 340.3789672851562 1 L 3.621063232421875 1 M 3.621063232421875 0 L 340.3789672851562 0 C 342.3788452148438 0 344 1.862503051757812 344 4.160003662109375 L 344 203.8399963378906 C 344 206.1374969482422 342.3788452148438 208 340.3789672851562 208 L 3.621063232421875 208 C 1.621185302734375 208 3.0517578125e-05 206.1374969482422 3.0517578125e-05 203.8399963378906 L 3.0517578125e-05 4.160003662109375 C 3.0517578125e-05 1.862503051757812 1.621185302734375 0 3.621063232421875 0 Z" stroke="none" fill="#eeeff1"/>
      </g>
    </g>
    <g id="그룹_342" data-name="그룹 342" transform="translate(0 36)">
      <g data-type="innerShadowGroup">
        <path id="사각형_106-2" data-name="사각형 106" d="M0,0H298a6,6,0,0,1,6,6V6a6,6,0,0,1-6,6H0a0,0,0,0,1,0,0V0A0,0,0,0,1,0,0Z" transform="translate(1176 1251)" fill="#f1f4f8"/>
        <g transform="matrix(1, 0, 0, 1, 1138, 1148)" filter="url(#사각형_106)">
          <path id="사각형_106-3" data-name="사각형 106" d="M0,0H298a6,6,0,0,1,6,6V6a6,6,0,0,1-6,6H0a0,0,0,0,1,0,0V0A0,0,0,0,1,0,0Z" transform="translate(38 103)" fill="#fff"/>
        </g>
      </g>
      <g data-type="innerShadowGroup">
        <path id="사각형_109-2" data-name="사각형 109" d="M0,0H182a4,4,0,0,1,4,4V4a4,4,0,0,1-4,4H0A0,0,0,0,1,0,8V0A0,0,0,0,1,0,0Z" transform="translate(1178 1253)" fill="url(#linear-gradient)"/>
        <g transform="matrix(1, 0, 0, 1, 1138, 1148)" filter="url(#사각형_109)">
          <path id="사각형_109-3" data-name="사각형 109" d="M0,0H182a4,4,0,0,1,4,4V4a4,4,0,0,1-4,4H0A0,0,0,0,1,0,8V0A0,0,0,0,1,0,0Z" transform="translate(40 105)" fill="#fff"/>
        </g>
      </g>
      <g id="그룹_254" data-name="그룹 254" transform="translate(-80 -181)">
        <g transform="matrix(1, 0, 0, 1, 1218, 1329)" filter="url(#합치기_1)">
          <g id="합치기_1-4" data-name="합치기 1" transform="translate(1637 1572)" fill="#fff">
            <path d="M -1495.4921875 -1464.7529296875 L -1499.562377929688 -1469.33203125 L -1499.711547851562 -1469.499877929688 L -1499.93603515625 -1469.499877929688 L -1515.999633789062 -1469.499877929688 C -1519.071533203125 -1469.499877929688 -1521.95947265625 -1470.696166992188 -1524.131713867188 -1472.868408203125 C -1526.303955078125 -1475.04052734375 -1527.500244140625 -1477.928588867188 -1527.500244140625 -1481.00048828125 C -1527.500244140625 -1484.071899414062 -1526.303955078125 -1486.959716796875 -1524.131713867188 -1489.131713867188 C -1521.95947265625 -1491.303833007812 -1519.071411132812 -1492.500122070312 -1515.999633789062 -1492.500122070312 L -1476 -1492.500122070312 C -1472.92822265625 -1492.500122070312 -1470.040405273438 -1491.303833007812 -1467.868408203125 -1489.131713867188 C -1465.696533203125 -1486.959716796875 -1464.500366210938 -1484.072021484375 -1464.500366210938 -1481.00048828125 C -1464.500366210938 -1477.928588867188 -1465.696533203125 -1475.04052734375 -1467.868408203125 -1472.868286132812 C -1470.040405273438 -1470.696166992188 -1472.92822265625 -1469.499877929688 -1476 -1469.499877929688 L -1491.048461914062 -1469.499877929688 L -1491.27294921875 -1469.499877929688 L -1491.422241210938 -1469.33203125 L -1495.4921875 -1464.7529296875 Z" stroke="none"/>
            <path d="M -1495.4921875 -1465.505615234375 L -1491.49755859375 -1469.999877929688 L -1476 -1469.999877929688 C -1473.061767578125 -1469.999877929688 -1470.299560546875 -1471.144165039062 -1468.222045898438 -1473.221923828125 C -1466.14453125 -1475.299560546875 -1465.000366210938 -1478.062133789062 -1465.000366210938 -1481.00048828125 C -1465.000366210938 -1483.9384765625 -1466.14453125 -1486.70068359375 -1468.221923828125 -1488.778198242188 C -1470.299560546875 -1490.85595703125 -1473.061767578125 -1492.000122070312 -1476 -1492.000122070312 L -1515.999633789062 -1492.000122070312 C -1522.0654296875 -1492.000122070312 -1527.000244140625 -1487.065673828125 -1527.000244140625 -1481.00048828125 C -1527.000244140625 -1478.062133789062 -1525.85595703125 -1475.299682617188 -1523.778198242188 -1473.221923828125 C -1521.700439453125 -1471.144165039062 -1518.937866210938 -1469.999877929688 -1515.999633789062 -1469.999877929688 L -1499.486938476562 -1469.999877929688 L -1495.4921875 -1465.505615234375 M -1495.4921875 -1464.000366210938 L -1499.93603515625 -1468.999877929688 L -1515.999633789062 -1468.999877929688 C -1522.627197265625 -1468.999877929688 -1528.000244140625 -1474.372802734375 -1528.000244140625 -1481.00048828125 C -1528.000244140625 -1487.627197265625 -1522.627197265625 -1493.000122070312 -1515.999633789062 -1493.000122070312 L -1476 -1493.000122070312 C -1469.372436523438 -1493.000122070312 -1464.000366210938 -1487.627197265625 -1464.000366210938 -1481.00048828125 C -1464.000366210938 -1474.372802734375 -1469.372436523438 -1468.999877929688 -1476 -1468.999877929688 L -1491.048461914062 -1468.999877929688 L -1495.4921875 -1464.000366210938 Z" stroke="none" fill="#eeeff1"/>
          </g>
        </g>
        <text id="햄최몇" transform="translate(1359 1425)" fill="#74a0a7" font-size="13" font-family="AppleSDGothicNeo-Regular, Apple SD Gothic Neo"><tspan x="-16.868" y="0">햄최몇</tspan></text>
      </g>
      <g data-type="innerShadowGroup">
        <rect id="사각형_107-2" data-name="사각형 107" width="304" height="12" rx="6" transform="translate(1176 1295)" fill="#f1f4f8"/>
        <g transform="matrix(1, 0, 0, 1, 1138, 1148)" filter="url(#사각형_107)">
          <rect id="사각형_107-3" data-name="사각형 107" width="304" height="12" rx="6" transform="translate(38 147)" fill="#fff"/>
        </g>
      </g>
      <g data-type="innerShadowGroup">
        <path id="사각형_110-2" data-name="사각형 110" d="M0,0H276a4,4,0,0,1,4,4V4a4,4,0,0,1-4,4H0A0,0,0,0,1,0,8V0A0,0,0,0,1,0,0Z" transform="translate(1178 1297)" fill="url(#linear-gradient-2)"/>
        <g transform="matrix(1, 0, 0, 1, 1138, 1148)" filter="url(#사각형_110)">
          <path id="사각형_110-3" data-name="사각형 110" d="M0,0H276a4,4,0,0,1,4,4V4a4,4,0,0,1-4,4H0A0,0,0,0,1,0,8V0A0,0,0,0,1,0,0Z" transform="translate(40 149)" fill="#fff"/>
        </g>
      </g>
      <g id="그룹_255" data-name="그룹 255" transform="translate(-154 -137)">
        <g id="그룹_260" data-name="그룹 260" transform="translate(208)">
          <g transform="matrix(1, 0, 0, 1, 1084, 1285)" filter="url(#합치기_1-2)">
            <g id="합치기_1-5" data-name="합치기 1" transform="translate(1771 1616)" fill="#fff">
              <path d="M -1479.999633789062 -1464.759643554688 L -1483.997924804688 -1469.3291015625 L -1484.147338867188 -1469.499877929688 L -1484.374267578125 -1469.499877929688 L -1515.999633789062 -1469.499877929688 C -1519.071533203125 -1469.499877929688 -1521.95947265625 -1470.696166992188 -1524.131713867188 -1472.868408203125 C -1526.303955078125 -1475.04052734375 -1527.500244140625 -1477.928588867188 -1527.500244140625 -1481.00048828125 C -1527.500244140625 -1484.071899414062 -1526.303955078125 -1486.959716796875 -1524.131713867188 -1489.131713867188 C -1521.95947265625 -1491.303833007812 -1519.071411132812 -1492.500122070312 -1515.999633789062 -1492.500122070312 L -1445.00048828125 -1492.500122070312 C -1441.928588867188 -1492.500122070312 -1439.04052734375 -1491.303833007812 -1436.868286132812 -1489.131713867188 C -1434.696166992188 -1486.959716796875 -1433.499877929688 -1484.071899414062 -1433.499877929688 -1481.00048828125 C -1433.499877929688 -1477.928588867188 -1434.696166992188 -1475.04052734375 -1436.868408203125 -1472.868408203125 C -1439.04052734375 -1470.696166992188 -1441.928588867188 -1469.499877929688 -1445.00048828125 -1469.499877929688 L -1475.625610351562 -1469.499877929688 L -1475.8525390625 -1469.499877929688 L -1476.001953125 -1469.3291015625 L -1479.999633789062 -1464.759643554688 Z" stroke="none"/>
              <path d="M -1479.999633789062 -1465.51904296875 L -1476.079467773438 -1469.999877929688 L -1445.00048828125 -1469.999877929688 C -1442.062133789062 -1469.999877929688 -1439.299682617188 -1471.144165039062 -1437.221923828125 -1473.221923828125 C -1435.144165039062 -1475.299682617188 -1433.999877929688 -1478.062133789062 -1433.999877929688 -1481.00048828125 C -1433.999877929688 -1487.065673828125 -1438.934692382812 -1492.000122070312 -1445.00048828125 -1492.000122070312 L -1515.999633789062 -1492.000122070312 C -1522.0654296875 -1492.000122070312 -1527.000244140625 -1487.065673828125 -1527.000244140625 -1481.00048828125 C -1527.000244140625 -1478.062133789062 -1525.85595703125 -1475.299682617188 -1523.778198242188 -1473.221923828125 C -1521.700439453125 -1471.144165039062 -1518.937866210938 -1469.999877929688 -1515.999633789062 -1469.999877929688 L -1483.920532226562 -1469.999877929688 L -1479.999633789062 -1465.51904296875 M -1479.999633789062 -1464.000366210938 L -1484.374267578125 -1468.999877929688 L -1515.999633789062 -1468.999877929688 C -1522.627197265625 -1468.999877929688 -1528.000244140625 -1474.372802734375 -1528.000244140625 -1481.00048828125 C -1528.000244140625 -1487.627197265625 -1522.627197265625 -1493.000122070312 -1515.999633789062 -1493.000122070312 L -1445.00048828125 -1493.000122070312 C -1438.372802734375 -1493.000122070312 -1432.999877929688 -1487.627197265625 -1432.999877929688 -1481.00048828125 C -1432.999877929688 -1474.372802734375 -1438.372802734375 -1468.999877929688 -1445.00048828125 -1468.999877929688 L -1475.625610351562 -1468.999877929688 L -1479.999633789062 -1464.000366210938 Z" stroke="none" fill="#eeeff1"/>
            </g>
          </g>
          <text id="배불리배불리" transform="translate(1374 1425)" fill="#74a0a7" font-size="13" font-family="AppleSDGothicNeo-Regular, Apple SD Gothic Neo"><tspan x="-33.735" y="0">배불리배불리</tspan></text>
        </g>
      </g>
      <g id="그룹_257" data-name="그룹 257" transform="translate(376 31)">
        <g data-type="innerShadowGroup">
          <rect id="사각형_108-2" data-name="사각형 108" width="304" height="12" rx="6" transform="translate(800 1308)" fill="#f1f4f8"/>
          <g transform="matrix(1, 0, 0, 1, 762, 1117)" filter="url(#사각형_108)">
            <rect id="사각형_108-3" data-name="사각형 108" width="304" height="12" rx="6" transform="translate(38 191)" fill="#fff"/>
          </g>
        </g>
        <g data-type="innerShadowGroup">
          <path id="사각형_111-2" data-name="사각형 111" d="M0,0H182a4,4,0,0,1,4,4V4a4,4,0,0,1-4,4H0A0,0,0,0,1,0,8V0A0,0,0,0,1,0,0Z" transform="translate(802 1310)" fill="url(#linear-gradient-2)"/>
          <g transform="matrix(1, 0, 0, 1, 762, 1117)" filter="url(#사각형_111)">
            <path id="사각형_111-3" data-name="사각형 111" d="M0,0H182a4,4,0,0,1,4,4V4a4,4,0,0,1-4,4H0A0,0,0,0,1,0,8V0A0,0,0,0,1,0,0Z" transform="translate(40 193)" fill="#fff"/>
          </g>
        </g>
      </g>
      <g id="그룹_256" data-name="그룹 256" transform="translate(-59 -93)">
        <g transform="matrix(1, 0, 0, 1, 1197, 1241)" filter="url(#합치기_1-3)">
          <g id="합치기_1-6" data-name="합치기 1" transform="translate(1658 1660)" fill="#fff">
            <path d="M -1495.999877929688 -1464.759643554688 L -1499.998168945312 -1469.3291015625 L -1500.147583007812 -1469.499877929688 L -1500.37451171875 -1469.499877929688 L -1515.999633789062 -1469.499877929688 C -1519.071533203125 -1469.499877929688 -1521.95947265625 -1470.696166992188 -1524.131713867188 -1472.868408203125 C -1526.303955078125 -1475.04052734375 -1527.500244140625 -1477.928588867188 -1527.500244140625 -1481.00048828125 C -1527.500244140625 -1484.071899414062 -1526.303955078125 -1486.959716796875 -1524.131713867188 -1489.131713867188 C -1521.95947265625 -1491.303833007812 -1519.071411132812 -1492.500122070312 -1515.999633789062 -1492.500122070312 L -1476 -1492.500122070312 C -1472.92822265625 -1492.500122070312 -1470.040405273438 -1491.303833007812 -1467.868408203125 -1489.131713867188 C -1465.696533203125 -1486.959716796875 -1464.500366210938 -1484.072021484375 -1464.500366210938 -1481.00048828125 C -1464.500366210938 -1477.928588867188 -1465.696533203125 -1475.04052734375 -1467.868408203125 -1472.868286132812 C -1470.040405273438 -1470.696166992188 -1472.92822265625 -1469.499877929688 -1476 -1469.499877929688 L -1491.625244140625 -1469.499877929688 L -1491.852172851562 -1469.499877929688 L -1492.001586914062 -1469.3291015625 L -1495.999877929688 -1464.759643554688 Z" stroke="none"/>
            <path d="M -1495.999877929688 -1465.518920898438 L -1492.078979492188 -1469.999877929688 L -1476 -1469.999877929688 C -1473.061767578125 -1469.999877929688 -1470.299560546875 -1471.144165039062 -1468.222045898438 -1473.221923828125 C -1466.14453125 -1475.299560546875 -1465.000366210938 -1478.062133789062 -1465.000366210938 -1481.00048828125 C -1465.000366210938 -1483.9384765625 -1466.14453125 -1486.70068359375 -1468.221923828125 -1488.778198242188 C -1470.299560546875 -1490.85595703125 -1473.061767578125 -1492.000122070312 -1476 -1492.000122070312 L -1515.999633789062 -1492.000122070312 C -1522.0654296875 -1492.000122070312 -1527.000244140625 -1487.065673828125 -1527.000244140625 -1481.00048828125 C -1527.000244140625 -1478.062133789062 -1525.85595703125 -1475.299682617188 -1523.778198242188 -1473.221923828125 C -1521.700439453125 -1471.144165039062 -1518.937866210938 -1469.999877929688 -1515.999633789062 -1469.999877929688 L -1499.920776367188 -1469.999877929688 L -1495.999877929688 -1465.518920898438 M -1495.999877929688 -1464.000366210938 L -1500.37451171875 -1468.999877929688 L -1515.999633789062 -1468.999877929688 C -1522.627197265625 -1468.999877929688 -1528.000244140625 -1474.372802734375 -1528.000244140625 -1481.00048828125 C -1528.000244140625 -1487.627197265625 -1522.627197265625 -1493.000122070312 -1515.999633789062 -1493.000122070312 L -1476 -1493.000122070312 C -1469.372436523438 -1493.000122070312 -1464.000366210938 -1487.627197265625 -1464.000366210938 -1481.00048828125 C -1464.000366210938 -1474.372802734375 -1469.372436523438 -1468.999877929688 -1476 -1468.999877929688 L -1491.625244140625 -1468.999877929688 L -1495.999877929688 -1464.000366210938 Z" stroke="none" fill="#eeeff1"/>
          </g>
        </g>
        <text id="스타또" transform="translate(1359 1425)" fill="#74a0a7" font-size="13" font-family="AppleSDGothicNeo-Regular, Apple SD Gothic Neo"><tspan x="-16.868" y="0">스타또</tspan></text>
      </g>
    </g>
  </g>
</svg>
