<svg xmlns="http://www.w3.org/2000/svg" xmlns:xlink="http://www.w3.org/1999/xlink" width="380" height="244" viewBox="0 0 380 244">
  <defs>
    <filter id="패스_166" x="0" y="0" width="380" height="244" filterUnits="userSpaceOnUse">
      <feOffset dy="3" input="SourceAlpha"/>
      <feGaussianBlur stdDeviation="6" result="blur"/>
      <feFlood flood-color="#95a6b6" flood-opacity="0.118"/>
      <feComposite operator="in" in2="blur"/>
      <feComposite in="SourceGraphic"/>
    </filter>
    <filter id="패스_164">
      <feOffset dy="3" input="SourceAlpha"/>
      <feGaussianBlur stdDeviation="3" result="blur-2"/>
      <feFlood flood-color="#6e9cbf" flood-opacity="0.161" result="color"/>
      <feComposite operator="out" in="SourceGraphic" in2="blur-2"/>
      <feComposite operator="in" in="color"/>
      <feComposite operator="in" in2="SourceGraphic"/>
    </filter>
  </defs>
  <g id="그룹_455" data-name="그룹 455" transform="translate(-402 -952)">
    <g transform="matrix(1, 0, 0, 1, 402, 952)" filter="url(#패스_166)">
      <g id="패스_166-2" data-name="패스 166" transform="translate(18 15)" fill="#fff">
        <path d="M 340.3790283203125 207.5 L 3.621060609817505 207.5 C 1.900106191635132 207.5 0.5000152587890625 205.8581390380859 0.5000152587890625 203.8399963378906 L 0.5000152587890625 4.159999847412109 C 0.5000152587890625 2.141863584518433 1.900106191635132 0.5 3.621060609817505 0.5 L 340.3790283203125 0.5 C 342.0999145507812 0.5 343.5 2.141863584518433 343.5 4.159999847412109 L 343.5 203.8399963378906 C 343.5 205.8581390380859 342.0999145507812 207.5 340.3790283203125 207.5 Z" stroke="none"/>
        <path d="M 3.621063232421875 1 C 2.17584228515625 1 1.000030517578125 2.417587280273438 1.000030517578125 4.160003662109375 L 1.000030517578125 203.8399963378906 C 1.000030517578125 205.5824127197266 2.17584228515625 207 3.621063232421875 207 L 340.3789672851562 207 C 341.8241882324219 207 343 205.5824127197266 343 203.8399963378906 L 343 4.160003662109375 C 343 2.417587280273438 341.8241882324219 1 340.3789672851562 1 L 3.621063232421875 1 M 3.621063232421875 0 L 340.3789672851562 0 C 342.3788757324219 0 344 1.862503051757812 344 4.160003662109375 L 344 203.8399963378906 C 344 206.1374969482422 342.3788757324219 208 340.3789672851562 208 L 3.621063232421875 208 C 1.621185302734375 208 3.0517578125e-05 206.1374969482422 3.0517578125e-05 203.8399963378906 L 3.0517578125e-05 4.160003662109375 C 3.0517578125e-05 1.862503051757812 1.621185302734375 0 3.621063232421875 0 Z" stroke="none" fill="#eeeff1"/>
      </g>
    </g>
    <g data-type="innerShadowGroup">
      <path id="패스_164-2" data-name="패스 164" d="M472.542,145.939a5.99,5.99,0,0,1-4.98-2.647,212.876,212.876,0,0,0-36.528-38.97c-21-17.51-54.682-38.383-95.859-38.383-79.495,0-137.241,76.793-137.815,77.569a6,6,0,0,1-9.647-7.138c.624-.843,15.567-20.872,41.126-41.133,34.082-27.017,70.853-41.3,106.336-41.3,35.542,0,71.442,14.315,103.82,41.4,24.283,20.311,37.947,40.4,38.517,41.248a6,6,0,0,1-4.97,9.354Z" transform="translate(257.464 1001.061)" fill="#eeeff1"/>
      <g transform="matrix(1, 0, 0, 1, 402, 952)" filter="url(#패스_164)">
        <path id="패스_164-3" data-name="패스 164" d="M472.542,145.939a5.99,5.99,0,0,1-4.98-2.647,212.876,212.876,0,0,0-36.528-38.97c-21-17.51-54.682-38.383-95.859-38.383-79.495,0-137.241,76.793-137.815,77.569a6,6,0,0,1-9.647-7.138c.624-.843,15.567-20.872,41.126-41.133,34.082-27.017,70.853-41.3,106.336-41.3,35.542,0,71.442,14.315,103.82,41.4,24.283,20.311,37.947,40.4,38.517,41.248a6,6,0,0,1-4.97,9.354Z" transform="translate(-144.54 49.06)" fill="#fff"/>
      </g>
    </g>
    <line id="선_8" data-name="선 8" x1="2.995" y1="4.75" transform="translate(517.5 1070.5)" fill="none" stroke="#d2d7df" stroke-linecap="round" stroke-width="1"/>
    <line id="선_9" data-name="선 9" x1="4" y1="4" transform="translate(457.5 1115.5)" fill="none" stroke="#d2d7df" stroke-linecap="round" stroke-width="1"/>
    <line id="선_7" data-name="선 7" y1="4.75" x2="2.212" transform="translate(669.288 1072.5)" fill="none" stroke="#d2d7df" stroke-linecap="round" stroke-width="1"/>
    <line id="선_10" data-name="선 10" y1="4" x2="4" transform="translate(722.5 1118.5)" fill="none" stroke="#d2d7df" stroke-linecap="round" stroke-width="1"/>
    <path id="패스_139" data-name="패스 139" d="M2451.308,2779.874s30.454-39.36,69.539-59.655" transform="translate(-2000.808 -1638.874)" fill="none" stroke="#fe607a" stroke-linecap="round" stroke-width="8"/>
    <circle id="타원_35" data-name="타원 35" cx="10" cy="10" r="10" transform="translate(509 1072)" fill="rgba(254,96,122,0.38)"/>
    <g id="타원_36" data-name="타원 36" transform="translate(512 1075)" fill="#fff" stroke="#fe607a" stroke-width="2">
      <circle cx="7" cy="7" r="7" stroke="none"/>
      <circle cx="7" cy="7" r="6" fill="none"/>
    </g>
    <g id="그룹_221" data-name="그룹 221" transform="matrix(0.755, -0.656, 0.656, 0.755, 91.26, 1246.871)">
      <path id="패스_140" data-name="패스 140" d="M362.754,136.988v-7.976l-2.207.984v-1.319l2.411-1.092h1.151v9.4Z" fill="#bfc6cc"/>
    </g>
    <g id="그룹_222" data-name="그룹 222" transform="translate(119.638 1135.483) rotate(-30)">
      <path id="패스_141" data-name="패스 141" d="M378.649,132.479l-2.939,3.346h3.97v1.163h-5.768v-1.055l3.646-4.162a2.125,2.125,0,0,0,.647-1.511,1.534,1.534,0,0,0-1.535-1.656,1.489,1.489,0,0,0-1.535,1.656v.252H373.78v-.264a2.885,2.885,0,0,1,5.768,0A2.959,2.959,0,0,1,378.649,132.479Z" fill="#bfc6cc"/>
    </g>
    <g id="그룹_224" data-name="그룹 224" transform="matrix(0.914, 0.407, -0.407, 0.914, 362.22, 778.777)">
      <path id="패스_143" data-name="패스 143" d="M405.86,135h-1.079v1.991h-1.355V135H399.54v-1.175l3.742-6.237h1.5v6.237h1.079Zm-2.434-1.175V129.7l-2.471,4.126Z" fill="#bfc6cc"/>
    </g>
    <g id="그룹_225" data-name="그룹 225" transform="translate(535.955 728.302) rotate(45)">
      <path id="패스_144" data-name="패스 144" d="M410.458,132.814h-1.343l.24-5.229h4.81v1.176h-3.55l-.144,2.866a1.762,1.762,0,0,1,1.547-.731c1.523,0,2.662,1.055,2.662,3.142a2.786,2.786,0,0,1-2.95,3.106,2.727,2.727,0,0,1-2.938-2.675h1.343a1.523,1.523,0,0,0,1.6,1.524c1,0,1.6-.7,1.6-1.979s-.6-1.955-1.6-1.955A1.368,1.368,0,0,0,410.458,132.814Z" fill="#bfc6cc"/>
    </g>
    <line id="선_6" data-name="선 6" y1="5.5" transform="translate(593.539 1050.215)" fill="none" stroke="#d2d7df" stroke-linecap="round" stroke-width="1"/>
    <g id="그룹_223" data-name="그룹 223" transform="translate(203.425 907.571)">
      <path id="패스_142" data-name="패스 142" d="M390.694,132.574h-.971v-1.151h.971a1.315,1.315,0,0,0,1.379-1.4,1.338,1.338,0,0,0-1.4-1.416,1.319,1.319,0,0,0-1.4,1.416v.1h-1.355v-.2a2.767,2.767,0,0,1,5.505,0,2.1,2.1,0,0,1-1.428,2.075,2.3,2.3,0,0,1,1.7,2.374,3.044,3.044,0,0,1-6.068-.035v-.144h1.367v.071a1.673,1.673,0,1,0,1.7-1.679Z" fill="#bfc6cc"/>
    </g>
  </g>
</svg>
